# xmcd
# Copyright (C) 1995-1998 Ti Kan
#
# Track frame offsets:
#       150
#       18650
#       32407
#       46205
#       60669
#       80104
#       102795
#       119677
#       140430
#       165209
#       183184
#       201827
#       227104
#       244362
#       264038
#       291995
#
# Disc length: 4134 seconds
#
# Revision: 0
# Processed by: cddbd v1.5.2PL0 Copyright (c) Steve Scherf et al.
# Submitted via: CD-Transfer v1.0
#
DISCID=da102410
DTITLE=Tokyo Ska Paradise Orchestra - 
DYEAR=04
DGENRE=
TTITLE0=Last Bandolero, The
TTITLE1=A Quick Drunkard
TTITLE2=Black Jack
TTITLE3=Call From Rio
TTITLE4=Ginga To Meiro
TTITLE5=Soul Growl
TTITLE6=One Eyed Cobra
TTITLE7=Utsukushiku Moeru Mori
TTITLE8=Mekureta Orange
TTITLE9=Skull Collector
TTITLE10=Natty Parade
TTITLE11=Moments In Heaven
TTITLE12=(We Know It's) All Or Nothing
TTITLE13=Down Beat Stomp
TTITLE14=Xxxxxx
TTITLE15=Raidrops Keep Falling On My Head
EXTD=
EXTT0=
EXTT1=
EXTT2=
EXTT3=
EXTT4=
EXTT5=
EXTT6=
EXTT7=
EXTT8=
EXTT9=
EXTT10=
EXTT11=
EXTT12=
EXTT13=
EXTT14=
EXTT15=
PLAYORDER=
